<?xml version="1.0" encoding="UTF-8" standalone="no"?>
<!DOCTYPE svg PUBLIC "-//W3C//DTD SVG 1.1//EN"
 "http://www.w3.org/Graphics/SVG/1.1/DTD/svg11.dtd">
<!-- Generated by graphviz version 2.38.0 (20140413.2041)
 -->
<!-- Title: controllers_diagram Pages: 1 -->
<svg width="459pt" height="432pt"
 viewBox="0.00 0.00 458.50 432.00" xmlns="http://www.w3.org/2000/svg" xmlns:xlink="http://www.w3.org/1999/xlink">
<g id="graph0" class="graph" transform="scale(1 1) rotate(0) translate(198.5 233)">
<title>controllers_diagram</title>
<polygon fill="none" stroke="none" points="-198.5,199 -198.5,-233 260,-233 260,199 -198.5,199"/>
<!-- _diagram_info -->
<g id="node1" class="node"><title>_diagram_info</title>
<text text-anchor="start" x="-112" y="-18.6" font-family="Times,serif" font-size="13.00">Controllers diagram</text>
<text text-anchor="start" x="-112" y="-4.6" font-family="Times,serif" font-size="13.00">Date: Aug 15 2015 &#45; 23:29</text>
<text text-anchor="start" x="-112" y="9.4" font-family="Times,serif" font-size="13.00">Migration version: 20150813033631</text>
<text text-anchor="start" x="-112" y="23.4" font-family="Times,serif" font-size="13.00">Generated by RailRoady 1.3.1</text>
<text text-anchor="start" x="-112" y="37.4" font-family="Times,serif" font-size="13.00">http://railroady.prestonlee.com</text>
</g>
<!-- GamesController -->
<g id="node2" class="node"><title>GamesController</title>
<path fill="none" stroke="black" d="M-33,164.5C-33,164.5 53,164.5 53,164.5 59,164.5 65,158.5 65,152.5 65,152.5 65,83.5 65,83.5 65,77.5 59,71.5 53,71.5 53,71.5 -33,71.5 -33,71.5 -39,71.5 -45,77.5 -45,83.5 -45,83.5 -45,152.5 -45,152.5 -45,158.5 -39,164.5 -33,164.5"/>
<text text-anchor="middle" x="10" y="86.7" font-family="Times,serif" font-size="14.00">GamesController</text>
<polyline fill="none" stroke="black" points="-45,94.5 65,94.5 "/>
<text text-anchor="start" x="-37" y="109.7" font-family="Times,serif" font-size="14.00">create</text>
<polyline fill="none" stroke="black" points="-45,117.5 65,117.5 "/>
<polyline fill="none" stroke="black" points="-45,141.5 65,141.5 "/>
<text text-anchor="start" x="-37" y="156.7" font-family="Times,serif" font-size="14.00">_layout</text>
</g>
<!-- StaticPagesController -->
<g id="node3" class="node"><title>StaticPagesController</title>
<path fill="none" stroke="black" d="M72,-60.5C72,-60.5 182,-60.5 182,-60.5 188,-60.5 194,-66.5 194,-72.5 194,-72.5 194,-171.5 194,-171.5 194,-177.5 188,-183.5 182,-183.5 182,-183.5 72,-183.5 72,-183.5 66,-183.5 60,-177.5 60,-171.5 60,-171.5 60,-72.5 60,-72.5 60,-66.5 66,-60.5 72,-60.5"/>
<text text-anchor="middle" x="127" y="-168.3" font-family="Times,serif" font-size="14.00">StaticPagesController</text>
<polyline fill="none" stroke="black" points="60,-160.5 194,-160.5 "/>
<text text-anchor="start" x="68" y="-145.3" font-family="Times,serif" font-size="14.00">about</text>
<text text-anchor="start" x="68" y="-130.3" font-family="Times,serif" font-size="14.00">game</text>
<text text-anchor="start" x="68" y="-115.3" font-family="Times,serif" font-size="14.00">home</text>
<polyline fill="none" stroke="black" points="60,-107.5 194,-107.5 "/>
<polyline fill="none" stroke="black" points="60,-83.5 194,-83.5 "/>
<text text-anchor="start" x="68" y="-68.3" font-family="Times,serif" font-size="14.00">_layout</text>
</g>
<!-- ApplicationController -->
<g id="node4" class="node"><title>ApplicationController</title>
<path fill="none" stroke="black" d="M132,119C132,119 244,119 244,119 250,119 256,113 256,107 256,107 256,37 256,37 256,31 250,25 244,25 244,25 132,25 132,25 126,25 120,31 120,37 120,37 120,107 120,107 120,113 126,119 132,119"/>
<text text-anchor="middle" x="188" y="40.2" font-family="Times,serif" font-size="14.00">ApplicationController</text>
<polyline fill="none" stroke="black" points="120,48 256,48 "/>
<polyline fill="none" stroke="black" points="120,72 256,72 "/>
<polyline fill="none" stroke="black" points="120,96 256,96 "/>
<text text-anchor="start" x="128" y="111.2" font-family="Times,serif" font-size="14.00">_layout</text>
</g>
<!-- UsersController -->
<g id="node5" class="node"><title>UsersController</title>
<path fill="none" stroke="black" d="M-62.5,-75.5C-62.5,-75.5 16.5,-75.5 16.5,-75.5 22.5,-75.5 28.5,-81.5 28.5,-87.5 28.5,-87.5 28.5,-216.5 28.5,-216.5 28.5,-222.5 22.5,-228.5 16.5,-228.5 16.5,-228.5 -62.5,-228.5 -62.5,-228.5 -68.5,-228.5 -74.5,-222.5 -74.5,-216.5 -74.5,-216.5 -74.5,-87.5 -74.5,-87.5 -74.5,-81.5 -68.5,-75.5 -62.5,-75.5"/>
<text text-anchor="middle" x="-23" y="-213.3" font-family="Times,serif" font-size="14.00">UsersController</text>
<polyline fill="none" stroke="black" points="-74.5,-205.5 28.5,-205.5 "/>
<text text-anchor="start" x="-66.5" y="-190.3" font-family="Times,serif" font-size="14.00">create</text>
<text text-anchor="start" x="-66.5" y="-175.3" font-family="Times,serif" font-size="14.00">index</text>
<text text-anchor="start" x="-66.5" y="-160.3" font-family="Times,serif" font-size="14.00">new</text>
<text text-anchor="start" x="-66.5" y="-145.3" font-family="Times,serif" font-size="14.00">show</text>
<polyline fill="none" stroke="black" points="-74.5,-137.5 28.5,-137.5 "/>
<polyline fill="none" stroke="black" points="-74.5,-113.5 28.5,-113.5 "/>
<text text-anchor="start" x="-66.5" y="-98.3" font-family="Times,serif" font-size="14.00">_layout</text>
<text text-anchor="start" x="-66.5" y="-83.3" font-family="Times,serif" font-size="14.00">user_params</text>
</g>
<!-- SessionsController -->
<g id="node6" class="node"><title>SessionsController</title>
<path fill="none" stroke="black" d="M-182.5,194.5C-182.5,194.5 -87.5,194.5 -87.5,194.5 -81.5,194.5 -75.5,188.5 -75.5,182.5 -75.5,182.5 -75.5,83.5 -75.5,83.5 -75.5,77.5 -81.5,71.5 -87.5,71.5 -87.5,71.5 -182.5,71.5 -182.5,71.5 -188.5,71.5 -194.5,77.5 -194.5,83.5 -194.5,83.5 -194.5,182.5 -194.5,182.5 -194.5,188.5 -188.5,194.5 -182.5,194.5"/>
<text text-anchor="middle" x="-135" y="86.7" font-family="Times,serif" font-size="14.00">SessionsController</text>
<polyline fill="none" stroke="black" points="-194.5,94.5 -75.5,94.5 "/>
<text text-anchor="start" x="-186.5" y="109.7" font-family="Times,serif" font-size="14.00">create</text>
<text text-anchor="start" x="-186.5" y="124.7" font-family="Times,serif" font-size="14.00">destroy</text>
<text text-anchor="start" x="-186.5" y="139.7" font-family="Times,serif" font-size="14.00">new</text>
<polyline fill="none" stroke="black" points="-194.5,147.5 -75.5,147.5 "/>
<polyline fill="none" stroke="black" points="-194.5,171.5 -75.5,171.5 "/>
<text text-anchor="start" x="-186.5" y="186.7" font-family="Times,serif" font-size="14.00">_layout</text>
</g>
</g>
</svg>
