<?xml version="1.0" encoding="UTF-8" standalone="no"?>
<!DOCTYPE svg PUBLIC "-//W3C//DTD SVG 1.1//EN"
 "http://www.w3.org/Graphics/SVG/1.1/DTD/svg11.dtd">
<!-- Generated by graphviz version 2.38.0 (20140413.2041)
 -->
<!-- Title: models_diagram Pages: 1 -->
<svg width="390pt" height="303pt"
 viewBox="0.00 0.00 390.00 303.00" xmlns="http://www.w3.org/2000/svg" xmlns:xlink="http://www.w3.org/1999/xlink">
<g id="graph0" class="graph" transform="scale(1 1) rotate(0) translate(4 299)">
<title>models_diagram</title>
<polygon fill="none" stroke="none" points="-4,4 -4,-299 386,-299 386,4 -4,4"/>
<!-- _diagram_info -->
<g id="node1" class="node"><title>_diagram_info</title>
<text text-anchor="start" x="8" y="-243.6" font-family="Times,serif" font-size="13.00">Models diagram</text>
<text text-anchor="start" x="8" y="-229.6" font-family="Times,serif" font-size="13.00">Date: Aug 15 2015 &#45; 23:29</text>
<text text-anchor="start" x="8" y="-215.6" font-family="Times,serif" font-size="13.00">Migration version: 20150813033631</text>
<text text-anchor="start" x="8" y="-201.6" font-family="Times,serif" font-size="13.00">Generated by RailRoady 1.3.1</text>
<text text-anchor="start" x="8" y="-187.6" font-family="Times,serif" font-size="13.00">http://railroady.prestonlee.com</text>
</g>
<!-- Game -->
<g id="node2" class="node"><title>Game</title>
<path fill="none" stroke="black" d="M253.5,-0.5C253.5,-0.5 360.5,-0.5 360.5,-0.5 366.5,-0.5 372.5,-6.5 372.5,-12.5 372.5,-12.5 372.5,-94.5 372.5,-94.5 372.5,-100.5 366.5,-106.5 360.5,-106.5 360.5,-106.5 253.5,-106.5 253.5,-106.5 247.5,-106.5 241.5,-100.5 241.5,-94.5 241.5,-94.5 241.5,-12.5 241.5,-12.5 241.5,-6.5 247.5,-0.5 253.5,-0.5"/>
<text text-anchor="middle" x="307" y="-91.3" font-family="Times,serif" font-size="14.00">Game</text>
<polyline fill="none" stroke="black" points="241.5,-83.5 372.5,-83.5 "/>
<text text-anchor="start" x="249.5" y="-68.3" font-family="Times,serif" font-size="14.00">id :integer</text>
<text text-anchor="start" x="249.5" y="-53.3" font-family="Times,serif" font-size="14.00">score :integer</text>
<text text-anchor="start" x="249.5" y="-38.3" font-family="Times,serif" font-size="14.00">user_id :integer</text>
<text text-anchor="start" x="249.5" y="-23.3" font-family="Times,serif" font-size="14.00">created_at :datetime</text>
<text text-anchor="start" x="249.5" y="-8.3" font-family="Times,serif" font-size="14.00">updated_at :datetime</text>
</g>
<!-- User -->
<g id="node3" class="node"><title>User</title>
<path fill="none" stroke="black" d="M244,-143.5C244,-143.5 370,-143.5 370,-143.5 376,-143.5 382,-149.5 382,-155.5 382,-155.5 382,-282.5 382,-282.5 382,-288.5 376,-294.5 370,-294.5 370,-294.5 244,-294.5 244,-294.5 238,-294.5 232,-288.5 232,-282.5 232,-282.5 232,-155.5 232,-155.5 232,-149.5 238,-143.5 244,-143.5"/>
<text text-anchor="middle" x="307" y="-279.3" font-family="Times,serif" font-size="14.00">User</text>
<polyline fill="none" stroke="black" points="232,-271.5 382,-271.5 "/>
<text text-anchor="start" x="240" y="-256.3" font-family="Times,serif" font-size="14.00">id :integer</text>
<text text-anchor="start" x="240" y="-241.3" font-family="Times,serif" font-size="14.00">name :string</text>
<text text-anchor="start" x="240" y="-226.3" font-family="Times,serif" font-size="14.00">email :string</text>
<text text-anchor="start" x="240" y="-211.3" font-family="Times,serif" font-size="14.00">created_at :datetime</text>
<text text-anchor="start" x="240" y="-196.3" font-family="Times,serif" font-size="14.00">updated_at :datetime</text>
<text text-anchor="start" x="240" y="-181.3" font-family="Times,serif" font-size="14.00">password_digest :string</text>
<text text-anchor="start" x="240" y="-166.3" font-family="Times,serif" font-size="14.00">remember_digest :string</text>
<text text-anchor="start" x="240" y="-151.3" font-family="Times,serif" font-size="14.00">highgame_id :integer</text>
</g>
<!-- User&#45;&gt;Game -->
<g id="edge1" class="edge"><title>User&#45;&gt;Game</title>
<path fill="none" stroke="#ec9906" d="M307,-135.227C307,-128.967 307,-122.716 307,-116.619"/>
<ellipse fill="none" stroke="#ec9906" cx="307" cy="-139.427" rx="4" ry="4"/>
<polygon fill="#ec9906" stroke="#ec9906" points="307,-116.531 311.5,-106.531 307,-111.531 307,-106.531 307,-106.531 307,-106.531 307,-111.531 302.5,-106.531 307,-116.531 307,-116.531"/>
</g>
</g>
</svg>
